<svg xmlns="http://www.w3.org/2000/svg" width="256" height="256" viewBox="0 0 100 100"><rect width="100" height="100" rx="50" fill="#7d6ee7"></rect><path fill="#fff" d="M15.70 70.40L15.70 70.40Q13.95 70.40 12.88 69.33Q11.81 68.26 11.81 66.52L11.81 66.52L11.81 29.67Q12.35 29.53 13.25 29.36Q14.16 29.20 15.16 29.20L15.16 29.20Q17.10 29.20 18.07 29.93Q19.05 30.67 19.05 32.55L19.05 32.55L19.05 64.37L37.20 64.37Q37.54 64.84 37.81 65.58Q38.07 66.31 38.07 67.25L38.07 67.25Q38.07 68.79 37.34 69.60Q36.60 70.40 35.39 70.40L35.39 70.40L15.70 70.40ZM70.10 59.88L70.10 59.88Q69.56 60.35 68.63 60.69Q67.69 61.02 66.48 61.02L66.48 61.02Q65.08 61.02 64.04 60.59Q63.00 60.15 62.60 59.21L62.60 59.21Q59.51 52.11 57.27 46.62Q55.03 41.12 53.69 37.44L53.69 37.44L53.35 37.44Q53.15 42.19 52.98 46.18Q52.81 50.17 52.61 53.99Q52.41 57.81 52.18 61.76Q51.94 65.71 51.68 70.27L51.68 70.27Q51.14 70.47 50.30 70.64Q49.46 70.80 48.53 70.80L48.53 70.80Q44.91 70.80 44.91 67.86L44.91 67.86Q44.91 66.98 45.01 64.77Q45.11 62.56 45.28 59.51Q45.44 56.47 45.68 52.78Q45.91 49.10 46.18 45.31Q46.45 41.52 46.72 37.87Q46.99 34.22 47.25 31.14L47.25 31.14Q47.79 30.60 49.03 30.00Q50.27 29.40 52.08 29.40L52.08 29.40Q54.22 29.40 55.49 30.17Q56.77 30.94 57.50 32.48L57.50 32.48Q58.58 34.82 59.72 37.54Q60.85 40.25 61.99 43.03Q63.13 45.81 64.20 48.56Q65.28 51.31 66.28 53.72L66.28 53.72L66.62 53.72Q67.89 50.37 69.20 47.09Q70.50 43.80 71.74 40.79Q72.98 37.77 74.09 35.09Q75.19 32.41 76.13 30.27L76.13 30.27Q76.87 29.93 77.94 29.67Q79.01 29.40 80.15 29.40L80.15 29.40Q82.36 29.40 83.47 30.07Q84.57 30.74 84.91 32.01L84.91 32.01Q85.18 33.22 85.51 36.00Q85.84 38.78 86.18 42.40Q86.52 46.01 86.85 50.07Q87.19 54.12 87.45 57.91Q87.72 61.69 87.92 64.87Q88.12 68.06 88.19 69.87L88.19 69.87Q87.45 70.33 86.62 70.57Q85.78 70.80 84.64 70.80L84.64 70.80Q83.23 70.80 82.19 70.20Q81.16 69.60 81.02 67.92L81.02 67.92Q80.75 63.37 80.52 58.94Q80.28 54.52 80.08 50.57Q79.88 46.62 79.71 43.27Q79.55 39.92 79.41 37.57L79.41 37.57L79.15 37.57Q77.87 40.99 75.69 46.28Q73.52 51.57 70.10 59.88Z"></path></svg>